<svg xmlns="http://www.w3.org/2000/svg" width="50" height="50" viewBox="0 0 28 35">
<style type="text/css">
	.st0{fill:#002fa6;}
</style>
<path class="st0" d="M14,6.247A12.866,12.866,0,0,0,2.185,14a12.878,12.878,0,0,0,23.629,0A12.866,12.866,0,0,0,14,6.247Zm3.439,5.324a1.705,1.705,0,1,1-1.7-1.7A1.7,1.7,0,0,1,17.439,11.571ZM14,19.81A10.927,10.927,0,0,1,4.342,14a10.909,10.909,0,0,1,5.4-4.945A5.511,5.511,0,0,0,8.52,12.533a5.582,5.582,0,0,0,11.164,0,5.49,5.49,0,0,0-1.117-3.342A10.9,10.9,0,0,1,23.658,14,10.927,10.927,0,0,1,14,19.81Z"/>
<text x="0" y="43" fill="#000000" font-size="5px" font-weight="bold" font-family="'Helvetica Neue', Helvetica, Arial-Unicode, Arial, Sans-serif">Created by Iconographer</text>
<text x="0" y="48" fill="#000000" font-size="5px" font-weight="bold" font-family="'Helvetica Neue', Helvetica, Arial-Unicode, Arial, Sans-serif">from the Noun Project</text>
</svg>
